# Rhino

mtllib Random_02.mtl
o object_1
usemtl IMG_7536
v 1 0 0
v 1 0 -1
v 1 1 -1
v 1 0.5 0
v 1 0 -0.5
v 1 0.5 -1
v 1 1 -0.5
v 1 0.75 -0.5
v 1 0.5 -0.5
v 1 0.5 -0.25
v 1 0 -1
v 1 1 -1
v 0 0 -1
v 0 1 -1
v 1 0.5 -1
v 0.5 0 -1
v 0 0.5 -1
v 0.5 1 -1
v 0 0 -1
v 0 1 -1
v 0 0 0
v 0 1 0
v 0 0.5 0
v 0 0.5 -1
v 0 0 -0.5
v 0 1 -0.5
v 0 0 0
v 0 0 -1
v 1 0 0
v 1 0 -1
v 0.5 0 0
v 1 0 -0.5
v 0.5 0 -1
v 0 0 -0.5
v 0 1 0
v 0 1 -1
v 1 1 -1
v 0.5 1 0
v 0.5 1 -1
v 0 1 -0.5
v 0.5 1 -0.25
v 1 1 -0.5
v 0.5 1 -0.5
v 0.75 1 -0.5
v 0.5 1 0
v 0.5 0.5 0
v 0.5 1 -0.5
v 0.5 0.5 -0.5
v 0.5 0.75 -0.5
v 0.5 0.5 -0.25
v 0.5 0.75 0
v 0.5 1 -0.25
v 0.5 1 -0.5
v 0.5 0.5 -0.5
v 1 1 -0.5
v 1 0.5 -0.5
v 0.5 0.75 -0.5
v 0.75 0.5 -0.5
v 1 0.75 -0.5
v 0.75 1 -0.5
v 0.5 0.5 0
v 1 0.5 0
v 0.5 0.5 -0.5
v 1 0.5 -0.5
v 0.5 0.5 -0.25
v 0.75 0.5 -0.5
v 0.75 0.5 0
v 1 0.5 -0.25
v 0 0 0
v 0 1 0
v 1 0 0
v 0.5 0 0
v 0.5 1 0
v 0 0.5 0
v 0.5 0.5 0
v 0.5 0.75 0
v 1 0.5 0
v 0.75 0.5 0
vt 0.2222222238779068 0.3333333432674408
vt 0.55555558204650879 0.3333333432674408
vt 0.55555558204650879 0.66520184278488159
vt 0.2222222238779068 0.499267578125
vt 0.3888888955116272 0.3333333432674408
vt 0.55555558204650879 0.499267578125
vt 0.3888888955116272 0.66520184278488159
vt 0.3888888955116272 0.58223468065261841
vt 0.3888888955116272 0.499267578125
vt 0.3055555522441864 0.499267578125
vt 0.3333333432674408 0.66666668653488159
vt 0.3333333432674408 0.99853515625
vt 0.66520184278488159 0.66666668653488159
vt 0.66520184278488159 0.99853515625
vt 0.3333333432674408 0.83260089159011841
vt 0.499267578125 0.66666668653488159
vt 0.66520184278488159 0.83260089159011841
vt 0.499267578125 0.99853515625
vt 0 0.66666668653488159
vt 0 0.99853515625
vt 0.3318684995174408 0.66666668653488159
vt 0.3318684995174408 0.99853515625
vt 0.3318684995174408 0.83260089159011841
vt 0 0.83260089159011841
vt 0.1659342497587204 0.66666668653488159
vt 0.1659342497587204 0.99853515625
vt 0.99853515625 0.5
vt 0.66666668653488159 0.5
vt 0.99853515625 0.83333331346511841
vt 0.66666668653488159 0.83333331346511841
vt 0.99853515625 0.66666668653488159
vt 0.83260089159011841 0.83333331346511841
vt 0.66666668653488159 0.66666668653488159
vt 0.83260089159011841 0.5
vt 0.99853515625 0
vt 0.66666668653488159 0
vt 0.66666668653488159 0.3333333432674408
vt 0.99853515625 0.1666666716337204
vt 0.66666668653488159 0.1666666716337204
vt 0.83260089159011841 0
vt 0.91556805372238159 0.1666666716337204
vt 0.83260089159011841 0.3333333432674408
vt 0.83260089159011841 0.1666666716337204
vt 0.83260089159011841 0.25
vt 0 0
vt 0 0.1666666716337204
vt 0.1666666716337204 0
vt 0.1666666716337204 0.1666666716337204
vt 0.1666666716337204 0.083333335816860199
vt 0.083333335816860199 0.1666666716337204
vt 0 0.083333335816860199
vt 0.083333335816860199 0
vt 0.1666666716337204 0.5
vt 0 0.5
vt 0.1666666716337204 0.66520184278488159
vt 0 0.66520184278488159
vt 0.083333335816860199 0.5
vt 0 0.58260089159011841
vt 0.083333335816860199 0.66520184278488159
vt 0.1666666716337204 0.58260089159011841
vt 0.1666666716337204 0.3333333432674408
vt 0 0.3333333432674408
vt 0.1666666716337204 0.49853515625
vt 0 0.49853515625
vt 0.1666666716337204 0.4159342348575592
vt 0.083333335816860199 0.49853515625
vt 0.083333335816860199 0.3333333432674408
vt 0 0.4159342348575592
vt 0.2222222238779068 0
vt 0.2222222238779068 0.3318684995174408
vt 0.55555558204650879 0
vt 0.3888888955116272 0
vt 0.3888888955116272 0.3318684995174408
vt 0.2222222238779068 0.1659342497587204
vt 0.3888888955116272 0.1659342497587204
vt 0.3888888955116272 0.2489013671875
vt 0.55555558204650879 0.1659342497587204
vt 0.47222220897674561 0.1659342497587204
vn 1 0 0
vn 1 0 0
vn 1 0 0
vn 1 0 0
vn 1 0 0
vn 1 0 0
vn 1 0 0
vn 1 0 0
vn 1 0 0
vn 1 0 0
vn 0 0 -1
vn 0 0 -1
vn 0 0 -1
vn 0 0 -1
vn 0 0 -1
vn 0 0 -1
vn 0 0 -1
vn 0 0 -1
vn -1 0 0
vn -1 0 0
vn -1 0 0
vn -1 0 0
vn -1 0 0
vn -1 0 0
vn -1 0 0
vn -1 0 0
vn 0 -1 0
vn 0 -1 0
vn 0 -1 0
vn 0 -1 0
vn 0 -1 0
vn 0 -1 0
vn 0 -1 0
vn 0 -1 0
vn 0 1 0
vn 0 1 0
vn 0 1 0
vn 0 1 0
vn 0 1 0
vn 0 1 0
vn 0 1 0
vn 0 1 0
vn 0 1 0
vn 0 1 0
vn 1 0 0
vn 1 0 0
vn 1 0 0
vn 1 0 0
vn 1 0 0
vn 1 0 0
vn 1 0 0
vn 1 0 0
vn 0 0 1
vn 0 0 1
vn 0 0 1
vn 0 0 1
vn 0 0 1
vn 0 0 1
vn 0 0 1
vn 0 0 1
vn 0 1 0
vn 0 1 0
vn 0 1 0
vn 0 1 0
vn 0 1 0
vn 0 1 0
vn 0 1 0
vn 0 1 0
vn 0 0 1
vn 0 0 1
vn 0 0 1
vn 0 0 1
vn 0 0 1
vn 0 0 1
vn 0 0 1
vn 0 0 1
vn 0 0 1
vn 0 0 1
f 1/1/1 5/5/5 2/2/2 6/6/6 3/3/3 7/7/7 8/8/8 9/9/9 10/10/10 4/4/4
f 15/15/15 11/11/11 16/16/16 13/13/13 17/17/17 14/14/14 18/18/18 12/12/12
f 24/24/24 19/19/19 25/25/25 21/21/21 23/23/23 22/22/22 26/26/26 20/20/20
f 31/31/31 27/27/27 34/34/34 28/28/28 33/33/33 30/30/30 32/32/32 29/29/29
f 35/35/35 38/38/38 41/41/41 43/43/43 44/44/44 42/42/42 37/37/37 39/39/39 36/36/36 40/40/40
f 52/52/52 45/45/45 51/51/51 46/46/46 50/50/50 48/48/48 49/49/49 47/47/47
f 60/60/60 53/53/53 57/57/57 54/54/54 58/58/58 56/56/56 59/59/59 55/55/55
f 65/65/65 61/61/61 67/67/67 62/62/62 68/68/68 64/64/64 66/66/66 63/63/63
f 74/74/74 69/69/69 72/72/72 71/71/71 77/77/77 78/78/78 75/75/75 76/76/76 73/73/73 70/70/70
