# Rhino

mtllib testing_03.mtl
usemtl diffuse_0
v -147.18778991699219 0 -46.274021148681641
v -147.18778991699219 15 -46.274021148681641
v -138.74850463867188 0 -46.274021148681641
v -138.74850463867188 15 -46.274021148681641
v -138.74850463867188 0 -46.274021148681641
v -138.74850463867188 15 -46.274021148681641
v -138.74850463867188 0 -102.97743988037109
v -138.74850463867188 15 -102.97743988037109
v -138.74850463867188 0 -102.97743988037109
v -138.74850463867188 15 -102.97743988037109
v -147.18778991699219 0 -102.97743988037109
v -147.18778991699219 15 -102.97743988037109
v -147.18778991699219 0 -102.97743988037109
v -147.18778991699219 15 -102.97743988037109
v -147.18778991699219 0 -46.274021148681641
v -147.18778991699219 15 -46.274021148681641
v -147.18778991699219 0 -46.274021148681641
v -138.74850463867188 0 -46.274021148681641
v -138.74850463867188 0 -102.97743988037109
v -147.18778991699219 0 -102.97743988037109
v -147.18778991699219 15 -46.274021148681641
v -138.74850463867188 15 -46.274021148681641
v -138.74850463867188 15 -102.97743988037109
v -147.18778991699219 15 -102.97743988037109
vt 0 0
vt 0 0.73526710271835327
vt 0.064775407314300537 0
vt 0.064775407314300537 0.73526710271835327
vt 0.064775407314300537 0
vt 0.064775407314300537 0.73526710271835327
vt 0.5 0
vt 0.5 0.73526710271835327
vt 0.5 0
vt 0.5 0.73526710271835327
vt 0.56477540731430054 0
vt 0.56477540731430054 0.73526710271835327
vt 0.56477540731430054 0
vt 0.56477540731430054 0.73526710271835327
vt 1 0
vt 1 0.73526710271835327
vt 0.43522459268569946 1
vt 0.43522459268569946 0.73526787757873535
vt 0 0.73526787757873535
vt 0 1
vt 1 0.73526787757873535
vt 1 1
vt 0.56477540731430054 1
vt 0.56477540731430054 0.73526787757873535
vn 0 0 1
vn 0 0 1
vn 0 0 1
vn 0 0 1
vn 1 0 0
vn 1 0 0
vn 1 0 0
vn 1 0 0
vn 0 0 -1
vn 0 0 -1
vn 0 0 -1
vn 0 0 -1
vn -1 0 0
vn -1 0 0
vn -1 0 0
vn -1 0 0
vn 0 -1 0
vn 0 -1 0
vn 0 -1 0
vn 0 -1 0
vn 0 1 0
vn 0 1 0
vn 0 1 0
vn 0 1 0
f 1/1/1 3/3/3 4/4/4 2/2/2
f 5/5/5 7/7/7 8/8/8 6/6/6
f 9/9/9 11/11/11 12/12/12 10/10/10
f 13/13/13 15/15/15 16/16/16 14/14/14
f 18/18/18 17/17/17 20/20/20
f 20/20/20 19/19/19 18/18/18
f 22/22/22 24/24/24 21/21/21
f 24/24/24 22/22/22 23/23/23
usemtl diffuse_0
v -131.18089294433594 0 -46.274021148681641
v -131.18089294433594 15 -46.274021148681641
v -122.74160003662109 0 -46.274021148681641
v -122.74160003662109 15 -46.274021148681641
v -122.74160003662109 0 -46.274021148681641
v -122.74160003662109 15 -46.274021148681641
v -122.74160003662109 0 -102.97743988037109
v -122.74160003662109 15 -102.97743988037109
v -122.74160003662109 0 -102.97743988037109
v -122.74160003662109 15 -102.97743988037109
v -131.18089294433594 0 -102.97743988037109
v -131.18089294433594 15 -102.97743988037109
v -131.18089294433594 0 -102.97743988037109
v -131.18089294433594 15 -102.97743988037109
v -131.18089294433594 0 -46.274021148681641
v -131.18089294433594 15 -46.274021148681641
v -131.18089294433594 0 -46.274021148681641
v -122.74160003662109 0 -46.274021148681641
v -122.74160003662109 0 -102.97743988037109
v -131.18089294433594 0 -102.97743988037109
v -131.18089294433594 15 -46.274021148681641
v -122.74160003662109 15 -46.274021148681641
v -122.74160003662109 15 -102.97743988037109
v -131.18089294433594 15 -102.97743988037109
vt 0 0
vt 0 0.73526710271835327
vt 0.064775407314300537 0
vt 0.064775407314300537 0.73526710271835327
vt 0.064775407314300537 0
vt 0.064775407314300537 0.73526710271835327
vt 0.5 0
vt 0.5 0.73526710271835327
vt 0.5 0
vt 0.5 0.73526710271835327
vt 0.56477540731430054 0
vt 0.56477540731430054 0.73526710271835327
vt 0.56477540731430054 0
vt 0.56477540731430054 0.73526710271835327
vt 1 0
vt 1 0.73526710271835327
vt 0.43522459268569946 1
vt 0.43522459268569946 0.73526787757873535
vt 0 0.73526787757873535
vt 0 1
vt 1 0.73526787757873535
vt 1 1
vt 0.56477540731430054 1
vt 0.56477540731430054 0.73526787757873535
vn 0 0 1
vn 0 0 1
vn 0 0 1
vn 0 0 1
vn 1 0 0
vn 1 0 0
vn 1 0 0
vn 1 0 0
vn 0 0 -1
vn 0 0 -1
vn 0 0 -1
vn 0 0 -1
vn -1 0 0
vn -1 0 0
vn -1 0 0
vn -1 0 0
vn 0 -1 0
vn 0 -1 0
vn 0 -1 0
vn 0 -1 0
vn 0 1 0
vn 0 1 0
vn 0 1 0
vn 0 1 0
f 25/25/25 27/27/27 28/28/28 26/26/26
f 29/29/29 31/31/31 32/32/32 30/30/30
f 33/33/33 35/35/35 36/36/36 34/34/34
f 37/37/37 39/39/39 40/40/40 38/38/38
f 42/42/42 41/41/41 44/44/44
f 44/44/44 43/43/43 42/42/42
f 46/46/46 48/48/48 45/45/45
f 48/48/48 46/46/46 47/47/47
